<svg xmlns="http://www.w3.org/2000/svg" viewBox="0 0 100 100" width="100%" height="100%">
  <defs>
    <!-- Vibrant Neon Emerald to Forest Green Gradient -->
    <linearGradient id="greenGrad" x1="0%" y1="100%" x2="100%" y2="0%">
      <stop offset="0%" stop-color="#00E676" />
      <stop offset="100%" stop-color="#27AE60" />
    </linearGradient>
    
    <!-- Modern Tech Teal to Blue Gradient for the 'A' -->
    <linearGradient id="tealGrad" x1="0%" y1="100%" x2="100%" y2="0%">
      <stop offset="0%" stop-color="#0F4C5C" />
      <stop offset="100%" stop-color="#259F9A" />
    </linearGradient>

    <!-- Drop Shadow for 3D overlap effect -->
    <filter id="dropShadow" x="-10%" y="-10%" width="130%" height="130%">
      <feDropShadow dx="2" dy="2" stdDeviation="1.5" flood-color="#000000" flood-opacity="0.4"/>
    </filter>
  </defs>

  <!-- Letter A (Right Side, Deep Teal) -->
  <path d="M 54,75 L 68,26 L 82,75 L 72,75 L 68,58 L 59,58 L 56,75 Z M 61,50 L 66,50 L 68,36 Z" fill="url(#tealGrad)" />

  <!-- Letter B (Left Side, Vibrant Green) -->
  <path d="M 18,20 L 46,20 C 55,20 60,25 60,33 C 60,39 56,44 48,46 C 57,48 62,54 62,62 C 62,70 55,75 46,75 L 18,75 Z M 28,30 L 28,42 L 44,42 C 48,42 50,40 50,36 C 50,32 48,30 44,30 Z M 28,52 L 28,65 L 46,65 C 50,65 52,63 52,58 C 52,54 50,52 46,52 Z" fill="url(#greenGrad)" />

  <!-- Upward Dynamic Arrow (Slicing/Overlap, Green Gradient with drop shadow) -->
  <g filter="url(#dropShadow)">
    <path d="M 38,75 L 65,22 L 58,18 L 76,14 L 78,32 L 71,28 L 44,75 Z" fill="url(#greenGrad)" />
  </g>
</svg>
